<?xml version="1.0" standalone="no"?>
<!DOCTYPE svg PUBLIC "-//W3C//DTD SVG 20010904//EN"
 "http://www.w3.org/TR/2001/REC-SVG-20010904/DTD/svg10.dtd">
<svg version="1.0" xmlns="http://www.w3.org/2000/svg"
 width="334.000000pt" height="340.000000pt" viewBox="0 0 334.000000 340.000000"
 preserveAspectRatio="xMidYMid meet">
<metadata>
Created by potrace 1.15, written by Peter Selinger 2001-2017
</metadata>
<g transform="translate(0.000000,340.000000) scale(0.100000,-0.100000)"
fill="#000000" stroke="none">
<path d="M1375 2681 c-186 -187 -337 -342 -335 -343 3 -2 305 -1 671 2 l666 5
-331 338 -331 338 -340 -340z m420 -45 c74 -23 95 -48 95 -117 l0 -57 -152 -7
c-84 -4 -166 -5 -183 -4 -29 4 -30 6 -33 56 -4 63 8 87 51 110 67 34 146 41
222 19z"/>
<path d="M2617 2277 c-34 -69 -59 -106 -93 -136 -48 -42 -47 -43 9 -56 23 -5
27 -8 17 -20 -14 -17 -65 -35 -116 -39 -24 -2 -40 -9 -42 -18 -4 -22 35 -66
79 -88 21 -11 39 -24 39 -29 0 -13 -31 -37 -77 -60 l-43 -21 0 -65 c0 -60 2
-65 31 -86 l31 -22 -31 -19 -31 -20 0 -149 0 -149 39 0 c43 0 66 -19 56 -48
-8 -26 -33 -32 -139 -32 -83 0 -88 -1 -83 -20 7 -26 -1 -26 -11 1 -8 20 -11
20 -552 19 -415 0 -546 -3 -554 -13 -6 -7 -26 -25 -43 -41 l-33 -29 10 34 c15
50 15 49 -51 49 -68 0 -99 12 -99 38 0 28 21 42 62 42 l39 0 -3 103 -3 102
-62 40 c-34 22 -62 45 -62 50 -1 6 28 25 64 43 61 30 65 34 65 66 0 32 -3 35
-47 50 -66 22 -153 73 -153 90 0 7 14 19 32 27 36 15 98 73 98 93 0 9 -19 15
-59 19 -54 4 -121 31 -121 48 0 3 18 9 40 13 48 8 50 16 9 40 -36 22 -100 115
-125 186 -10 27 -21 50 -25 50 -4 0 -13 -24 -19 -52 -18 -74 -54 -142 -101
-189 -22 -22 -38 -43 -36 -46 3 -3 21 -5 41 -6 l35 -1 -27 -16 c-15 -9 -55
-31 -89 -50 -35 -18 -63 -37 -63 -41 0 -18 49 -40 106 -47 l59 -8 -38 -36
c-21 -19 -56 -44 -78 -53 -22 -10 -38 -23 -36 -28 5 -15 65 -35 105 -36 32 -1
32 -1 18 -29 -36 -69 -76 -64 -126 15 -34 53 -36 63 -16 63 8 0 28 11 43 25
32 29 38 20 -55 80 -25 17 -47 35 -49 40 -1 6 11 18 29 28 l32 18 -40 24 c-21
13 -52 44 -68 70 l-30 47 -24 -49 c-13 -26 -38 -62 -54 -80 -34 -35 -30 -53
10 -53 25 0 24 -2 -27 -54 l-54 -55 6 -153 c9 -225 50 -395 144 -597 41 -90
156 -275 186 -299 11 -9 63 20 253 139 131 83 244 153 249 155 6 3 -32 -40
-83 -93 -101 -105 -201 -231 -232 -293 l-20 -38 55 -50 c157 -144 393 -257
650 -312 126 -27 426 -38 561 -21 237 32 448 110 642 238 91 60 202 158 202
178 0 33 -100 155 -250 305 -90 91 -153 158 -140 149 173 -112 499 -313 511
-316 12 -3 35 22 79 88 173 260 258 517 268 816 l5 151 -52 48 c-28 26 -51 51
-51 55 0 5 14 9 30 9 36 0 38 15 6 41 -13 10 -36 43 -52 74 -16 30 -32 55 -35
55 -4 0 -12 -14 -19 -30 -12 -29 -56 -73 -96 -96 -17 -10 -16 -12 15 -28 l33
-18 -22 -23 c-12 -13 -42 -34 -66 -47 -24 -12 -44 -28 -44 -35 0 -6 18 -22 40
-35 39 -24 39 -24 24 -54 -22 -41 -65 -84 -85 -84 -9 0 -29 14 -44 32 l-27 32
58 13 c33 8 65 20 73 27 12 12 7 17 -27 35 -52 26 -114 80 -106 92 3 5 23 9
45 9 48 0 112 25 107 42 -3 7 -42 32 -88 57 -75 42 -80 46 -54 49 46 6 49 18
11 52 -50 43 -78 92 -103 178 l-21 74 -46 -95z"/>
<path d="M1708 2283 l-578 -3 0 -490 0 -490 28 0 27 0 0 432 0 433 193 3 192
2 0 -435 0 -435 25 0 25 0 0 210 0 210 335 0 335 0 0 285 c0 157 -1 284 -2
283 -2 -2 -263 -4 -580 -5z m453 -308 l0 -180 -230 -3 -231 -2 0 185 0 185
231 -2 230 -3 0 -180z"/>
<path d="M1690 1480 l0 -160 30 0 30 0 0 160 0 160 -30 0 -30 0 0 -160z"/>
<path d="M1830 1480 l0 -160 30 0 30 0 0 160 0 160 -30 0 -30 0 0 -160z"/>
<path d="M1960 1480 l0 -160 30 0 30 0 0 160 0 160 -30 0 -30 0 0 -160z"/>
<path d="M2100 1480 l0 -160 25 0 25 0 0 160 0 160 -25 0 -25 0 0 -160z"/>
<path d="M2230 1480 l0 -160 25 0 25 0 0 160 0 160 -25 0 -25 0 0 -160z"/>
</g>
</svg>
